<!DOCTYPE svg PUBLIC "-//W3C//DTD SVG 1.1//EN" "http://www.w3.org/Graphics/SVG/1.1/DTD/svg11.dtd">
<!-- Uploaded to: SVG Repo, www.svgrepo.com, Transformed by: SVG Repo Mixer Tools -->
<svg version="1.1" id="Layer_1" xmlns="http://www.w3.org/2000/svg" xmlns:xlink="http://www.w3.org/1999/xlink" viewBox="0 0 392.616 392.616" xml:space="preserve" width="800px" height="800px" fill="#000000">

<g id="SVGRepo_bgCarrier" stroke-width="0"/>

<g id="SVGRepo_tracerCarrier" stroke-linecap="round" stroke-linejoin="round"/>

<g id="SVGRepo_iconCarrier"> <rect x="123.071" y="123.246" transform="matrix(-0.7071 0.7071 -0.7071 -0.7071 474.148 196.6456)" style="fill:#FFFFFF;" width="146.552" height="146.552"/> <g> <path style="fill:#9384D1;" d="M191.016,143.524c4.461,4.331,11.442,4.008,15.386,0c4.267-4.267,4.267-11.119,0-15.386 l-2.327-2.327c-4.267-4.267-11.119-4.267-15.386,0c-4.267,4.267-4.267,11.119,0,15.386L191.016,143.524z"/> <path style="fill:#9384D1;" d="M220.753,173.262c4.461,4.331,11.442,4.008,15.386,0c4.267-4.267,4.267-11.119,0-15.386 l-2.327-2.327c-4.267-4.267-11.119-4.267-15.386,0c-4.267,4.267-4.267,11.119,0,15.386L220.753,173.262z"/> <path style="fill:#9384D1;" d="M251.719,204.163c4.461,4.331,11.442,4.008,15.386,0c4.267-4.267,4.267-11.119,0-15.386 l-2.327-2.327c-4.267-4.267-11.119-4.267-15.386,0c-4.267,4.267-4.267,11.119,0,15.386L251.719,204.163z"/> <path style="fill:#9384D1;" d="M159.533,174.878c4.461,4.331,11.442,4.008,15.386,0c4.267-4.267,4.267-11.119,0-15.386 l-2.327-2.327c-4.267-4.267-11.119-4.267-15.386,0c-4.267,4.267-4.267,11.119,0,15.386L159.533,174.878z"/> <path style="fill:#9384D1;" d="M189.335,204.68c4.461,4.331,11.442,4.008,15.386,0c4.267-4.267,4.267-11.119,0-15.386l-2.327-2.327 c-4.267-4.267-11.119-4.267-15.386,0c-4.267,4.267-4.267,11.119,0,15.386L189.335,204.68z"/> <path style="fill:#9384D1;" d="M220.301,235.581c4.461,4.331,11.442,4.008,15.386,0c4.267-4.267,4.267-11.119,0-15.386 l-2.327-2.327c-4.267-4.267-11.119-4.267-15.386,0c-4.267,4.267-4.267,11.119,0,15.386L220.301,235.581z"/> <path style="fill:#9384D1;" d="M125.788,204.033l2.327,2.327c4.461,4.331,11.442,4.008,15.386,0c4.267-4.267,4.267-11.119,0-15.386 l-2.327-2.327c-4.267-4.267-11.119-4.267-15.386,0C121.521,192.914,121.521,199.767,125.788,204.033z"/> <path style="fill:#9384D1;" d="M157.917,236.163c4.461,4.331,11.442,4.008,15.386,0c4.267-4.267,4.267-11.119,0-15.386 l-2.327-2.327c-4.267-4.267-11.119-4.267-15.386,0c-4.267,4.267-4.267,11.119,0,15.386L157.917,236.163z"/> <path style="fill:#9384D1;" d="M188.883,267.064c4.461,4.331,11.442,4.008,15.386,0c4.267-4.267,4.267-11.119,0-15.386 l-2.327-2.327c-4.267-4.267-11.119-4.267-15.386,0c-4.267,4.267-4.267,11.119,0,15.386L188.883,267.064z"/> <path style="fill:#9384D1;" d="M376.422,242.175l-45.64-45.64l45.899-45.899c21.204-21.204,21.204-55.661,0-76.8l-57.665-57.665 c-22.432-21.463-54.368-21.463-76.8,0L196.317,62.07l-45.834-45.834c-18.747-20.299-54.562-22.691-76.8,0L15.953,73.9 c-21.721,21.786-20.816,56.307,0,76.8l45.899,45.834L16.277,242.11c-20.299,18.747-22.691,54.562,0,76.8l57.665,57.665 c21.786,21.721,56.307,20.816,76.8,0l45.576-45.576l45.64,45.64c21.204,21.204,55.661,21.204,76.8,0l57.665-57.665 C398.014,296.607,398.014,264.607,376.422,242.175z M257.602,31.556c13.059-12.735,33.228-12.8,45.964,0l57.665,57.665 c12.671,12.671,12.671,33.293,0,45.964l-45.899,45.899L211.703,77.455L257.602,31.556z M299.945,196.534L196.317,300.098 L92.689,196.534L196.317,92.906L299.945,196.534z M31.404,135.249c-12.606-12.606-12.735-32.97,0-45.964l3.62-3.62L47.63,98.207 c4.267,4.267,11.119,4.267,15.386,0s4.267-11.119,0-15.386L50.41,70.15l15.386-15.386l23.79,23.79 c4.267,4.267,11.119,4.267,15.386,0s4.267-11.119,0-15.386L81.246,39.443l7.822-7.822c13.511-12.606,33.099-13.123,45.964,0 l45.834,45.834L77.238,181.148L31.404,135.249z M135.291,361.189c-12.606,12.606-32.97,12.735-45.964,0l-57.665-57.665 c-12.606-13.511-13.123-33.099,0-45.964l45.576-45.576l103.628,103.628L135.291,361.189z M361.036,303.589l-57.665,57.665 c-12.671,12.671-33.293,12.671-45.964,0l-45.64-45.64l103.628-103.628l45.64,45.64 C373.836,270.684,373.901,290.853,361.036,303.589z"/> </g> <g> <path style="fill:#FFFFFF;" d="M77.238,211.855l-45.576,45.576c-13.123,12.929-12.606,32.453,0,45.964l57.665,57.665 c12.994,12.735,33.487,12.606,45.964,0l45.576-45.576L77.238,211.855z"/> <path style="fill:#FFFFFF;" d="M211.703,77.455l103.628,103.628l45.899-45.899c12.671-12.671,12.671-33.293,0-45.964 l-57.665-57.665c-12.735-12.8-32.905-12.735-45.964,0L211.703,77.455z"/> </g> <g> <path style="fill:#9384D1;" d="M31.404,135.249l45.834,45.834L180.866,77.455l-45.834-45.834 c-12.929-13.123-32.453-12.606-45.964,0l-7.822,7.822l23.79,23.79c4.267,4.267,4.267,11.119,0,15.386s-11.119,4.267-15.386,0 l-23.79-23.79L50.41,70.215l12.606,12.606c4.267,4.267,4.267,11.119,0,15.386s-11.119,4.267-15.386,0L35.024,85.601l-3.62,3.62 C18.604,102.215,18.798,122.708,31.404,135.249z"/> <path style="fill:#9384D1;" d="M361.036,303.589c12.8-12.735,12.735-32.905,0-45.964l-45.64-45.64L211.703,315.613l45.64,45.64 c12.671,12.671,33.293,12.671,45.964,0L361.036,303.589z"/> </g> </g>

</svg>