<!DOCTYPE svg PUBLIC "-//W3C//DTD SVG 1.1//EN" "http://www.w3.org/Graphics/SVG/1.1/DTD/svg11.dtd">
<!-- Uploaded to: SVG Repo, www.svgrepo.com, Transformed by: SVG Repo Mixer Tools -->
<svg height="800px" width="800px" version="1.1" id="Layer_1" xmlns="http://www.w3.org/2000/svg" xmlns:xlink="http://www.w3.org/1999/xlink" viewBox="0 0 392.485 392.485" xml:space="preserve" fill="#000000">

<g id="SVGRepo_bgCarrier" stroke-width="0"/>

<g id="SVGRepo_tracerCarrier" stroke-linecap="round" stroke-linejoin="round"/>

<g id="SVGRepo_iconCarrier"> <path style="fill:#9384D1;" d="M319.911,69.382h-17.261c-18.747,0-37.301-6.4-52.105-18.101L194.368,6.869 c-11.572-9.115-29.156-9.18-40.21-0.065c-14.481,12.671-16.549,35.749,0.453,49.519l16.549,13.059h-68.008 c-19.265,1.875-31.354,11.636-32.905,33.099c0.129,3.038,0.711,5.947,1.616,8.727c-17.261,1.034-31.03,15.257-31.03,32.646 c0,16.226,14.352,30.513,30.966,30.901c-1.034,3.168-1.616,6.465-1.616,9.956c0,14.739,11.313,30.578,29.673,31.741 c-1.099,3.168-1.616,6.594-1.616,10.02c0,20.622,16.356,31.741,31.741,31.741h189.931c17.519,0,31.741-14.287,31.741-31.741V101.188 C351.653,83.604,337.366,69.382,319.911,69.382z M329.867,226.408c0,5.495-4.461,9.956-9.956,9.956h-62.319l48.937-49.455 c4.267-4.267,4.202-11.184-0.065-15.451c-4.267-4.267-11.184-4.202-15.451,0.065l-64.065,64.776h-97.099 c-0.388,0-9.956-0.065-9.956-9.956c0-5.495,4.461-9.956,9.956-9.956h65.034c6.012,0,10.925-4.848,10.925-10.925 s-4.848-10.925-10.925-10.925h-65.034h-27.992c-7.499,0-9.956-6.853-9.956-9.956c0-5.495,4.461-9.956,9.956-9.956h93.091 c6.012,0,10.925-4.848,10.925-10.925c0-6.012-4.848-10.925-10.925-10.925h-93.091H72.509c-4.719,0-9.956-4.784-9.956-9.115 c0-5.947,5.042-10.796,11.119-10.796h28.186h93.091c6.012,0,10.925-4.848,10.925-10.925c0-6.012-4.848-10.925-10.925-10.925h-93.091 c-5.495-0.517-9.18-3.232-9.956-9.568c0-5.947,4.008-9.18,11.119-10.343h99.362c11.96-1.099,13.834-13.899,6.788-19.459 l-41.115-32.517c-3.879-3.556-5.624-9.891-0.065-15.58c4.008-3.038,8.339-2.521,12.8,0.388l56.178,44.412 c18.683,14.739,41.956,22.885,65.681,22.885h17.261c5.495,0,9.956,4.461,9.956,9.956L329.867,226.408L329.867,226.408z"/> <path style="fill:#ffffff;" d="M257.527,236.493h62.255c5.495,0,9.956-4.461,9.956-9.956V101.188c0-5.495-4.461-9.956-9.956-9.956 h-17.261c-23.725,0-46.998-8.145-65.616-22.82L180.727,24c-4.461-2.909-8.792-3.426-12.8-0.388 c-5.56,5.689-3.814,12.154,0.065,15.58l41.115,32.517c7.046,5.56,5.172,18.295-6.788,19.459h-99.232 c-7.176,1.164-11.119,4.461-11.119,10.343c0.776,6.271,4.461,8.986,9.956,9.568h93.091c6.012,0,10.925,4.848,10.925,10.925 c0,6.012-4.848,10.925-10.925,10.925H73.673c-6.077,0-11.119,4.848-11.119,10.796c0,4.331,5.172,9.115,9.956,9.115h122.505 c6.012,0,10.925,4.848,10.925,10.925c0,6.077-4.848,10.925-10.925,10.925h-93.091c-5.495,0-9.956,4.461-9.956,9.956 c0,3.103,2.521,9.956,9.956,9.956h93.091c6.012,0,10.925,4.848,10.925,10.925c0,6.077-4.848,10.925-10.925,10.925H129.98 c-5.495,0-9.956,4.461-9.956,9.956c0,9.891,9.568,9.956,9.956,9.956h96.97l64.065-64.776c4.267-4.331,11.119-4.331,15.451-0.065 c4.267,4.267,4.331,11.119,0.065,15.451L257.527,236.493z"/> <path style="fill:#ffffff;" d="M201.285,350.982c0,10.796,8.792,19.717,19.717,19.717c10.796,0,19.717-8.792,19.717-19.717 c0-6.465-9.115-23.467-19.717-39.628C210.4,327.515,201.285,344.517,201.285,350.982z"/> <path style="fill:#9384D1;" d="M229.794,285.689c-4.655-6.077-13.123-5.947-17.648,0c-7.628,10.537-32.711,46.287-32.711,65.293 c0,22.885,18.618,41.503,41.503,41.503s41.503-18.618,41.503-41.503C262.505,331.976,237.422,296.226,229.794,285.689z M221.002,370.699c-10.796,0-19.717-8.792-19.717-19.717c0-6.465,9.115-23.467,19.717-39.628 c10.602,16.162,19.717,33.228,19.717,39.628C240.59,361.843,231.798,370.699,221.002,370.699z"/> </g>

</svg>