<!DOCTYPE svg PUBLIC "-//W3C//DTD SVG 1.1//EN" "http://www.w3.org/Graphics/SVG/1.1/DTD/svg11.dtd">
<!-- Uploaded to: SVG Repo, www.svgrepo.com, Transformed by: SVG Repo Mixer Tools -->
<svg height="800px" width="800px" version="1.1" id="Layer_1" xmlns="http://www.w3.org/2000/svg" xmlns:xlink="http://www.w3.org/1999/xlink" viewBox="0 0 392.702 392.702" xml:space="preserve" fill="#000000">

<g id="SVGRepo_bgCarrier" stroke-width="0"/>

<g id="SVGRepo_tracerCarrier" stroke-linecap="round" stroke-linejoin="round"/>

<g id="SVGRepo_iconCarrier"> <path style="fill:#9384D1;" d="M184.752,151.717l14.093,0.517c6.271,0.517,12.412-3.426,11.378-11.184l-0.84-28.897 c-0.065-3.814-2.133-7.24-5.495-9.115l-85.139-48.42C123.79,36.064,115.838,15.7,98.319,5.68C77.503-6.15,50.998,1.09,39.232,21.906 c-5.301,9.374-6.853,20.105-4.719,30.319c-9.826,3.297-18.295,10.214-23.661,19.523c-11.83,20.816-4.59,47.192,16.226,59.022 c17.455,9.956,39.046,6.335,52.493-7.434l92.574,52.687c8.339,4.784,17.325-0.905,15.903-12.283L184.752,151.717z M170.853,129.349 c-8.792,0-14.287,7.499-10.667,14.804L82.093,99.741c-5.236-3.038-11.895-1.164-14.804,4.073 c-5.883,10.279-19.006,13.899-29.349,8.016c-10.279-5.883-13.899-19.006-8.016-29.349c3.943-6.982,11.378-11.119,19.394-10.796 c8.339,0.065,13.77-8.275,9.503-16.743c-4.331-6.723-4.59-15.321-0.646-22.238c5.883-10.279,19.006-13.899,29.349-8.016 c10.279,5.883,13.899,19.006,8.016,29.349c-3.038,5.236-1.164,11.895,4.073,14.804l88.113,50.166l0.323,11.055L170.853,129.349z"/> <path style="fill:#ffffff;" d="M170.853,129.349l17.131,0.711l-0.323-11.055L99.548,68.84c-5.236-3.038-7.046-9.632-4.073-14.804 c5.883-10.279,2.263-23.467-8.016-29.349s-23.467-2.263-29.349,8.016c-3.943,6.982-3.685,15.451,0.646,22.238 c4.202,8.404-1.164,16.743-9.503,16.743c-8.016-0.259-15.451,3.879-19.394,10.796c-5.883,10.279-2.263,23.467,8.016,29.35 c10.279,5.883,23.467,2.263,29.349-8.016c3.038-5.236,9.632-7.046,14.869-4.073l78.093,44.477 C156.501,136.912,161.996,129.413,170.853,129.349z"/> <path style="fill:#9384D1;" d="M381.729,298.852c-9.891-16.743-29.543-25.6-49.002-20.105L261.94,156.242 c-5.883-7.046-12.218-7.564-19.006,0.259l-8.275,15.063l-14.481-9.244c-7.758-4.008-12.671-0.711-16.356,6.271l-7.176,26.376 c-0.776,2.78-0.388,5.818,1.099,8.339l66.521,115.135c-14.222,14.352-17.131,36.913-7.111,52.558 c20.881,34.844,69.107,24.436,78.61-7.887c2.844,0.517,5.689,0.84,8.663,0.84c7.564,0,14.998-2.004,21.657-5.818 C386.513,346.108,393.689,319.603,381.729,298.852z M354.966,339.191c-6.788,3.943-15.58,3.685-22.238-0.453 c-7.499-4.719-16.226,0.129-16.679,9.632c-1.293,26.44-30.19,28.638-40.081,11.572c-5.43-11.507-3.038-22.432,7.887-29.35 c5.56-4.008,6.723-9.051,4.008-14.933L218.82,196.258l2.069-7.693l11.83,7.564c6.335,3.168,11.507,1.875,15.451-3.943l4.59-8.275 l65.81,113.972c2.651,4.331,9.503,7.434,15.063,4.008c10.02-6.271,23.725-1.745,29.22,7.822 C368.735,320.056,365.245,333.244,354.966,339.191z"/> <path style="fill:#ffffff;" d="M332.727,338.739c6.659,4.202,15.386,4.396,22.238,0.453c10.279-5.947,13.834-19.071,7.887-29.349 c-5.495-9.632-19.135-14.093-29.22-7.822c-5.495,3.297-12.412,0.323-15.063-4.008l-65.81-114.036l-4.59,8.339 c-3.943,5.818-9.115,7.111-15.451,3.943l-11.83-7.564l-2.069,7.628l68.978,119.467c2.78,5.883,1.552,10.796-4.008,14.933 c-10.925,6.982-13.317,17.842-7.887,29.349c9.826,17.067,38.788,14.869,40.081-11.572 C316.501,338.868,325.228,334.02,332.727,338.739z"/> <g> <path style="fill:#9384D1;" d="M268.469,112.024l22.497-22.497c4.267-4.267,4.267-11.119,0-15.451 c-4.267-4.267-11.119-4.267-15.451,0l-22.497,22.562c-4.267,4.267-4.267,11.119,0,15.451 C257.608,116.807,264.849,115.644,268.469,112.024z"/> <path style="fill:#9384D1;" d="M267.887,140.468c1.422,6.206,6.982,10.343,12.606,8.792l31.289-5.495 c5.948-1.099,9.891-6.723,8.792-12.606c-1.099-5.947-6.723-9.891-12.606-8.792l-31.289,5.495 C270.731,128.832,266.788,134.521,267.887,140.468z"/> <path style="fill:#9384D1;" d="M224.703,97.284c6.465,1.487,12.412-4.202,12.606-8.792l5.495-31.289 c1.099-5.947-2.909-11.572-8.792-12.606c-5.947-1.099-11.572,2.909-12.606,8.792l-5.495,31.289 C214.812,90.561,218.756,96.25,224.703,97.284z"/> </g> </g>

</svg>